<svg width="93" height="67" viewBox="0 0 93 67" fill="none" xmlns="http://www.w3.org/2000/svg">
<path fill-rule="evenodd" clip-rule="evenodd" d="M91.0565 10.4379C89.987 6.32913 86.8356 3.09368 82.8339 1.99561C75.5821 0 46.5 0 46.5 0C46.5 0 17.4179 0 10.1655 1.99561C6.16389 3.09368 3.01246 6.32913 1.94296 10.4379C0 17.8845 0 33.4219 0 33.4219C0 33.4219 0 48.9587 1.94296 56.4059C3.01246 60.5146 6.16389 63.7501 10.1655 64.8487C17.4179 66.8438 46.5 66.8438 46.5 66.8438C46.5 66.8438 75.5821 66.8438 82.8339 64.8487C86.8356 63.7501 89.987 60.5146 91.0565 56.4059C93 48.9587 93 33.4219 93 33.4219C93 33.4219 93 17.8845 91.0565 10.4379Z" fill="#FF5348"/>
<path fill-rule="evenodd" clip-rule="evenodd" d="M37.7812 49.4062V20.3438L61.0312 34.8756L37.7812 49.4062Z" fill="white"/>
</svg>
